<?xml version="1.0" encoding="UTF-8"?>
<!-- Generated by Pixelmator Pro 3.0 -->
<svg width="448" height="512" viewBox="0 0 448 512" xmlns="http://www.w3.org/2000/svg" xmlns:xlink="http://www.w3.org/1999/xlink">
    <path id="Path" fill="#ffffff" stroke="none" d="M 289.799988 46.799988 C 293.5 37.799988 302.299988 32 312 32 L 424 32 C 437.299988 32 448 42.700012 448 56 L 448 168 C 448 177.700012 442.200012 186.5 433.200012 190.200012 C 424.200012 193.899994 413.899994 191.899994 407 185 L 373.600006 151.600006 L 321 204.200012 C 340.5 232.600006 352 266.899994 352 304 C 352 401.200012 273.200012 480 176 480 C 78.800003 480 0 401.200012 0 304 C 0 206.799988 78.800003 128 176 128 C 213 128 247.399994 139.399994 275.799988 159 L 328.399994 106.399994 L 295 73 C 288.100006 66.100006 286.100006 55.799988 289.799988 46.799988 Z M 400 80 L 400 80 L 400 80 L 400 80 Z M 176 416 C 237.899994 416 288 365.899994 288 304 C 288 242.100006 237.899994 192 176 192 C 114.099998 192 64 242.100006 64 304 C 64 365.899994 114.099998 416 176 416 Z"/>
</svg>
