<?xml version="1.0" encoding="UTF-8"?>
<!-- Generated by Pixelmator Pro 3.0 -->
<svg width="384" height="512" viewBox="0 0 384 512" xmlns="http://www.w3.org/2000/svg" xmlns:xlink="http://www.w3.org/1999/xlink">
    <path id="Path" fill="#ffffff" stroke="none" d="M 304 176 C 304 237.899994 253.899994 288 192 288 C 130.100006 288 80 237.899994 80 176 C 80 114.100006 130.100006 64 192 64 C 253.899994 64 304 114.100006 304 176 Z M 224 349.100006 C 305.899994 334.100006 368 262.299988 368 176 C 368 78.799988 289.200012 0 192 0 C 94.800003 0 16 78.799988 16 176 C 16 262.299988 78.099998 334.100006 160 349.100006 L 160 384 L 128 384 C 110.300003 384 96 398.299988 96 416 C 96 433.700012 110.300003 448 128 448 L 160 448 L 160 480 C 160 497.700012 174.300003 512 192 512 C 209.699997 512 224 497.700012 224 480 L 224 448 L 256 448 C 273.700012 448 288 433.700012 288 416 C 288 398.299988 273.700012 384 256 384 L 224 384 L 224 349.100006 Z"/>
</svg>
