<?xml version="1.0" encoding="UTF-8"?>
<!-- Generated by Pixelmator Pro 3.0 -->
<svg width="320" height="512" viewBox="0 0 320 512" xmlns="http://www.w3.org/2000/svg" xmlns:xlink="http://www.w3.org/1999/xlink">
    <path id="Path" fill="#ffffff" stroke="none" d="M 208 48 C 208 74.5 186.5 96 160 96 C 133.5 96 112 74.5 112 48 C 112 21.5 133.5 0 160 0 C 186.5 0 208 21.5 208 48 Z M 152 352 L 152 480 C 152 497.700012 137.699997 512 120 512 C 102.300003 512 88 497.700012 88 480 L 88 256.899994 L 59.400002 304.5 C 50.299999 319.600006 30.6 324.5 15.5 315.399994 C 0.4 306.299988 -4.5 286.600006 4.6 271.5 L 62.900002 174.5 C 80.300003 145.600006 111.5 127.899994 145.199997 127.899994 L 174.899994 127.899994 C 208.600006 127.899994 239.800003 145.600006 257.200012 174.5 L 315.5 271.5 C 324.600006 286.600006 319.700012 306.299988 304.600006 315.399994 C 289.5 324.5 269.799988 319.600006 260.700012 304.5 L 232 256.899994 L 232 480 C 232 497.700012 217.699997 512 200 512 C 182.300003 512 168 497.700012 168 480 L 168 352 L 152 352 Z"/>
</svg>
