<?xml version="1.0" encoding="UTF-8"?>
<!-- Generated by Pixelmator Pro 3.0 -->
<svg width="448" height="512" viewBox="0 0 448 512" xmlns="http://www.w3.org/2000/svg" xmlns:xlink="http://www.w3.org/1999/xlink">
    <path id="Path" fill="#ffffff" stroke="none" d="M 86.400002 5.5 L 61.799999 47.600006 C 58 54.100006 56 61.600006 56 69.200012 L 56 72 C 56 94.100006 73.900002 112 96 112 C 118.099998 112 136 94.100006 136 72 L 136 69.200012 C 136 61.600006 134 54.200012 130.199997 47.600006 L 105.599998 5.5 C 103.599998 2.100006 100 0 96 0 C 92 0 88.400002 2.100006 86.400002 5.5 Z M 214.399994 5.5 L 189.800003 47.600006 C 186 54.100006 184 61.600006 184 69.200012 L 184 72 C 184 94.100006 201.899994 112 224 112 C 246.100006 112 264 94.100006 264 72 L 264 69.200012 C 264 61.600006 262 54.200012 258.200012 47.600006 L 233.600006 5.5 C 231.600006 2.100006 228 0 224 0 C 220 0 216.399994 2.100006 214.399994 5.5 Z M 317.799988 47.600006 C 314 54.100006 312 61.600006 312 69.200012 L 312 72 C 312 94.100006 329.899994 112 352 112 C 374.100006 112 392 94.100006 392 72 L 392 69.200012 C 392 61.600006 390 54.200012 386.200012 47.600006 L 361.600006 5.5 C 359.600006 2.100006 356 0 352 0 C 348 0 344.399994 2.100006 342.399994 5.5 L 317.799988 47.600006 Z M 128 176 C 128 158.299988 113.699997 144 96 144 C 78.300003 144 64 158.299988 64 176 L 64 224 C 28.700001 224 0 252.700012 0 288 L 0 359 C 8.3 364.200012 18.1 368 28.799999 368 C 42.299999 368 56 361.899994 67.199997 354.600006 C 72.599998 351.100006 77.099998 347.5 80.199997 344.899994 C 81.699997 343.600006 82.900002 342.5 83.699997 341.799988 C 84.099998 341.399994 84.400002 341.200012 84.5 341 L 84.599998 340.899994 L 84.599998 340.899994 L 84.599998 340.899994 C 84.599998 340.899994 84.599998 340.899994 84.599998 340.899994 C 84.599998 340.899994 84.599998 340.899994 84.599998 340.899994 C 87.699997 337.700012 92 336 96.5 336.100006 C 101 336.200012 105.099998 338.200012 108.099998 341.5 L 108.099998 341.5 L 108.099998 341.5 L 108.199997 341.600006 C 108.300003 341.700012 108.599998 342 108.900002 342.299988 C 109.599998 343 110.599998 344 112 345.299988 C 114.800003 347.899994 118.800003 351.399994 123.800003 354.799988 C 134 361.899994 146.800003 367.899994 160.100006 367.899994 C 173.399994 367.899994 186.199997 361.899994 196.399994 354.799988 C 201.399994 351.299988 205.399994 347.899994 208.199997 345.299988 C 209.600006 344 210.600006 343 211.300003 342.299988 C 211.600006 342 211.899994 341.700012 212 341.600006 L 212.100006 341.5 C 215.100006 338 219.5 336.100006 224.100006 336.100006 C 228.699997 336.100006 233.100006 338.100006 236.100006 341.5 L 236.199997 341.600006 C 236.300003 341.700012 236.600006 342 236.899994 342.299988 C 237.600006 343 238.600006 344 240 345.299988 C 242.800003 347.899994 246.800003 351.399994 251.800003 354.799988 C 262 361.899994 274.799988 367.899994 288.100006 367.899994 C 301.399994 367.899994 314.200012 361.899994 324.399994 354.799988 C 329.399994 351.299988 333.399994 347.899994 336.200012 345.299988 C 337.600006 344 338.600006 343 339.299988 342.299988 C 339.600006 342 339.899994 341.700012 340 341.600006 L 340.100006 341.5 C 343 338.100006 347.200012 336.200012 351.700012 336.100006 C 356.200012 336 360.399994 337.700012 363.600006 340.899994 L 363.600006 340.899994 L 363.600006 340.899994 L 363.600006 340.899994 L 363.700012 341 C 363.899994 341.200012 364.100006 341.399994 364.5 341.799988 C 365.299988 342.5 366.399994 343.600006 368 344.899994 C 371.100006 347.5 375.5 351.100006 381 354.600006 C 392.200012 361.899994 405.899994 368 419.399994 368 C 430.100006 368 439.899994 364.100006 448.200012 359 L 448.200012 288 C 448.200012 252.700012 419.5 224 384.200012 224 L 384.200012 176 C 384.200012 158.299988 369.899994 144 352.200012 144 C 334.5 144 320.200012 158.299988 320.200012 176 L 320.200012 224 L 256 224 L 256 176 C 256 158.299988 241.699997 144 224 144 C 206.300003 144 192 158.299988 192 176 L 192 224 L 128 224 L 128 176 Z M 448 394.600006 C 439.5 397.899994 429.799988 400 419.200012 400 C 396.700012 400 376.799988 390.100006 363.399994 381.399994 C 359.299988 378.700012 355.600006 376 352.5 373.600006 C 349.700012 376 346.399994 378.600006 342.700012 381.100006 C 329.799988 390 310.600006 400 288 400 C 265.399994 400 246.199997 390 233.399994 381.100006 C 229.899994 378.700012 226.699997 376.200012 224 373.899994 C 221.300003 376.200012 218.100006 378.600006 214.600006 381.100006 C 201.800003 390 182.600006 400 160 400 C 137.399994 400 118.199997 390 105.400002 381.100006 C 101.699997 378.5 98.400002 375.899994 95.599998 373.600006 C 92.5 376 88.800003 378.700012 84.699997 381.399994 C 71.199997 390.100006 51.299999 400 28.799999 400 C 18.200001 400 8.5 397.799988 0 394.600006 L 0 480 C 0 497.700012 14.3 512 32 512 L 416 512 C 433.700012 512 448 497.700012 448 480 L 448 394.600006 Z"/>
</svg>
