<?xml version="1.0" encoding="UTF-8"?>
<!-- Generated by Pixelmator Pro 3.0 -->
<svg width="320" height="512" viewBox="0 0 320 512" xmlns="http://www.w3.org/2000/svg" xmlns:xlink="http://www.w3.org/1999/xlink">
    <path id="Path" fill="#ffffff" stroke="none" d="M 160 96 C 133.5 96 112 74.5 112 48 C 112 21.5 133.5 0 160 0 C 186.5 0 208 21.5 208 48 C 208 74.5 186.5 96 160 96 Z M 88 384 L 70.199997 384 C 59.299999 384 51.599998 373.299988 55 362.899994 L 93.300003 248.100006 L 59.400002 304.5 C 50.299999 319.600006 30.6 324.5 15.5 315.399994 C 0.4 306.299988 -4.5 286.600006 4.6 271.5 L 58.200001 182.299988 C 78.5 148.600006 114.900002 128 154.199997 128 L 165.800003 128 C 205.100006 128 241.5 148.600006 261.799988 182.299988 L 315.399994 271.5 C 324.5 286.600006 319.600006 306.299988 304.5 315.399994 C 289.399994 324.5 269.700012 319.600006 260.600006 304.5 L 226.699997 248.200012 L 265 362.899994 C 268.5 373.299988 260.700012 384 249.800003 384 L 232 384 L 232 480 C 232 497.700012 217.699997 512 200 512 C 182.300003 512 168 497.700012 168 480 L 168 384 L 152 384 L 152 480 C 152 497.700012 137.699997 512 120 512 C 102.300003 512 88 497.700012 88 480 L 88 384 Z"/>
</svg>
