<?xml version="1.0" encoding="UTF-8"?>
<!-- Generated by Pixelmator Pro 3.0 -->
<svg width="640" height="512" viewBox="0 0 640 512" xmlns="http://www.w3.org/2000/svg" xmlns:xlink="http://www.w3.org/1999/xlink">
    <path id="Path" fill="#ffffff" stroke="none" d="M 176 288 C 237.899994 288 288 237.899994 288 176 C 288 114.100006 237.899994 64 176 64 C 114.099998 64 64 114.100006 64 176 C 64 237.899994 114.099998 288 176 288 Z M 352 176 C 352 262.299988 289.899994 334.100006 208 349.100006 L 208 384 L 240 384 C 257.700012 384 272 398.299988 272 416 C 272 433.700012 257.700012 448 240 448 L 208 448 L 208 480 C 208 497.700012 193.699997 512 176 512 C 158.300003 512 144 497.700012 144 480 L 144 448 L 112 448 C 94.300003 448 80 433.700012 80 416 C 80 398.299988 94.300003 384 112 384 L 144 384 L 144 349.100006 C 62.099998 334.100006 0 262.299988 0 176 C 0 78.799988 78.800003 0 176 0 C 273.200012 0 352 78.799988 352 176 Z M 271.899994 360.600006 C 291.200012 350.5 308.799988 337.5 324 322.200012 C 344 340.700012 370.700012 352 400.100006 352 C 462 352 512.099976 301.899994 512.099976 240 C 512.099976 178.100006 462 128 400.100006 128 C 392.899994 128 385.799988 128.700012 379 130 C 374.100006 108.5 366 88.299988 355 69.799988 C 369.299988 66 384.399994 64 400 64 C 437 64 471.399994 75.399994 499.799988 95 L 520.400024 74.399994 L 487 41 C 480.100006 34.100006 478.100006 23.799988 481.799988 14.799988 C 485.5 5.799988 494.299988 0 504 0 L 616 0 C 629.299988 0 640 10.700012 640 24 L 640 136 C 640 145.700012 634.200012 154.5 625.200012 158.200012 C 616.200012 161.899994 605.900024 159.899994 599 153 L 565.599976 119.600006 L 545 140.200012 C 564.5 168.600006 576 202.899994 576 240 C 576 337.200012 497.200012 416 400 416 C 349.5 416 304 394.700012 271.899994 360.600006 Z"/>
</svg>
