<?xml version="1.0" encoding="UTF-8"?>
<!-- Generated by Pixelmator Pro 3.0 -->
<svg width="512" height="512" viewBox="0 0 512 512" xmlns="http://www.w3.org/2000/svg" xmlns:xlink="http://www.w3.org/1999/xlink">
    <path id="Path" fill="#ffffff" stroke="none" d="M 256 512 C 114.599998 512 0 397.399994 0 256 C 0 114.600006 114.599998 0 256 0 C 397.399994 0 512 114.600006 512 256 C 512 397.399994 397.399994 512 256 512 Z M 232 120 L 232 256 C 232 264 236 271.5 242.699997 276 L 338.700012 340 C 349.700012 347.399994 364.600006 344.399994 372 333.299988 C 379.399994 322.200012 376.399994 307.399994 365.299988 300 L 280 243.200012 L 280 120 C 280 106.700012 269.299988 96 256 96 C 242.699997 96 232 106.700012 232 120 Z"/>
</svg>
