<?xml version="1.0" encoding="UTF-8"?>
<!-- Generated by Pixelmator Pro 3.0 -->
<svg width="343" height="76" viewBox="0 0 343 76" xmlns="http://www.w3.org/2000/svg" xmlns:xlink="http://www.w3.org/1999/xlink">
    <g id="surface1">
        <linearGradient id="linearGradient1" x1="9.97978" y1="63.5424" x2="64.441" y2="11.02338" gradientUnits="userSpaceOnUse">
            <stop offset="1e-05" stop-color="#47ad76" stop-opacity="1"/>
            <stop offset="0.02139" stop-color="#47ad76" stop-opacity="1"/>
            <stop offset="0.2032" stop-color="#57bc7a" stop-opacity="1"/>
            <stop offset="0.3048" stop-color="#57be83" stop-opacity="1"/>
            <stop offset="0.9144" stop-color="#58caf7" stop-opacity="1"/>
            <stop offset="1" stop-color="#58caf7" stop-opacity="1"/>
        </linearGradient>
        <path id="Path" fill="url(#linearGradient1)" stroke="none" d="M 38.328125 6.910156 C 32.4375 10.304688 26.503906 14.84375 20.941406 20.40625 C 15.378906 25.96875 10.796875 31.9375 7.445312 37.828125 C 0.164062 50.464844 -1.679688 62.734375 3.433594 69.808594 C 3.476562 69.847656 3.515625 69.890625 3.515625 69.929688 C 3.558594 69.972656 3.597656 70.011719 3.597656 70.054688 L 3.640625 70.09375 L 3.679688 70.175781 L 3.722656 70.21875 C 3.761719 70.257813 3.761719 70.300781 3.804688 70.339844 L 3.84375 70.382813 L 3.886719 70.421875 L 3.886719 70.460938 L 3.925781 70.503906 L 3.925781 70.542969 L 3.964844 70.585938 L 4.007812 70.625 L 4.046875 70.667969 L 4.089844 70.707031 L 4.128906 70.75 L 4.171875 70.789063 L 4.210938 70.832031 L 4.253906 70.871094 L 4.292969 70.914063 L 4.335938 70.953125 L 4.375 70.996094 L 4.375 71.035156 L 4.457031 71.117188 L 4.5 71.15625 L 4.539062 71.199219 L 4.582031 71.238281 L 4.621094 71.28125 L 4.703125 71.363281 C 7.605469 74.265625 11.65625 75.617188 16.441406 75.617188 C 22.824219 75.617188 30.472656 73.203125 38.285156 68.703125 Z M 60.167969 0 C 53.789063 0 46.140625 2.414063 38.328125 6.910156 C 44.214844 10.304688 50.148438 14.84375 55.75 20.40625 C 61.316406 25.96875 65.894531 31.9375 69.25 37.828125 C 71.828125 33.371094 73.707031 28.996094 74.855469 24.824219 C 74.855469 24.78125 74.894531 24.742188 74.894531 24.699219 L 74.894531 24.332031 C 77.0625 16.152344 76.285156 8.996094 72.03125 4.539063 C 71.992188 4.5 71.949219 4.457031 71.910156 4.417969 C 71.867188 4.375 71.828125 4.335938 71.785156 4.292969 C 69.003906 1.347656 64.953125 0 60.167969 0 Z"/>
        <linearGradient id="linearGradient2" x1="65.1708" y1="62.4494" x2="3.3702" y2="12.98038" gradientUnits="userSpaceOnUse">
            <stop offset="1e-05" stop-color="#74c58f" stop-opacity="1"/>
            <stop offset="0.9144" stop-color="#6891cd" stop-opacity="1"/>
            <stop offset="1" stop-color="#6891cd" stop-opacity="1"/>
        </linearGradient>
        <path id="path1" fill="url(#linearGradient2)" stroke="none" d="M 69.246094 37.828125 C 65.851563 43.71875 61.3125 49.6875 55.75 55.25 C 50.1875 60.8125 44.214844 65.351563 38.324219 68.746094 C 46.136719 73.242188 53.785156 75.65625 60.167969 75.65625 C 64.953125 75.65625 69.042969 74.308594 71.90625 71.402344 L 71.949219 71.363281 L 71.988281 71.320313 L 72.03125 71.28125 L 72.070313 71.238281 L 72.273438 71.035156 L 72.273438 70.996094 L 72.355469 70.914063 C 72.398438 70.871094 72.4375 70.832031 72.4375 70.789063 C 72.480469 70.75 72.519531 70.707031 72.5625 70.667969 C 78.53125 63.753906 76.816406 50.996094 69.246094 37.828125 Z"/>
        <linearGradient id="linearGradient3" x1="42.9648" y1="68.703" x2="13.35256" y2="29.0838" gradientUnits="userSpaceOnUse">
            <stop offset="1e-05" stop-color="#54b18c" stop-opacity="1"/>
            <stop offset="0.9144" stop-color="#539cb8" stop-opacity="1"/>
            <stop offset="1" stop-color="#519abc" stop-opacity="1"/>
        </linearGradient>
        <path id="path2" fill="url(#linearGradient3)" stroke="none" d="M 38.324219 6.910156 L 38.324219 68.742188 C 44.214844 65.347656 50.144531 60.808594 55.75 55.25 C 61.3125 49.6875 65.851563 43.714844 69.246094 37.828125 C 65.851563 31.9375 61.3125 26.007813 55.75 20.40625 C 50.144531 14.84375 44.214844 10.304688 38.324219 6.910156 Z"/>
        <linearGradient id="linearGradient4" x1="28.299" y1="27.4866" x2="6.17466" y2="6.45118" gradientUnits="userSpaceOnUse">
            <stop offset="1e-05" stop-color="#41b75e" stop-opacity="1"/>
            <stop offset="0.9144" stop-color="#5083c4" stop-opacity="1"/>
            <stop offset="1" stop-color="#5083c4" stop-opacity="1"/>
        </linearGradient>
        <path id="path3" fill="url(#linearGradient4)" stroke="none" d="M 20.898438 20.40625 C 26.464844 14.84375 32.433594 10.304688 38.285156 6.910156 L 38.285156 6.871094 C 24.664063 -0.941406 11.449219 -2.453125 4.742188 4.253906 C -1.964844 10.960938 -0.453125 24.167969 7.402344 37.828125 C 10.796875 31.9375 15.335938 25.96875 20.898438 20.40625 Z"/>
        <path id="path4" fill="#ffffff" stroke="none" d="M 115.898438 42.429688 C 117.214844 42.429688 118.488281 42.429688 119.765625 42.429688 C 121.078125 42.429688 122.4375 42.429688 123.792969 42.429688 C 123.792969 42.878906 123.835938 43.121094 123.792969 43.324219 C 122.558594 47.558594 119.230469 50.445313 114.457031 50.121094 C 110.429688 49.835938 107.386719 47.84375 106.027344 44.058594 C 105.617188 42.917969 105.328125 41.738281 105.164063 40.558594 C 104.753906 37.101563 105 33.722656 106.605469 30.550781 C 109.441406 24.894531 116.84375 23.917969 120.75 27.539063 C 121.777344 28.515625 122.519531 29.816406 123.464844 31.078125 C 126.015625 31.363281 128.976563 31.28125 130.210938 30.792969 C 129.46875 25.828125 126.46875 22.65625 121.902344 20.742188 C 119.1875 19.605469 116.351563 19.359375 113.429688 19.5625 C 106.769531 19.96875 101.957031 23.101563 99.285156 29.246094 C 97.390625 33.640625 97.226563 38.199219 98.089844 42.835938 C 99.53125 50.488281 105.617188 56.507813 114.417969 56.101563 C 117.996094 55.9375 120.996094 54.757813 123.507813 52.277344 C 123.875 51.871094 124.328125 51.542969 124.824219 51.054688 C 125.109375 52.5625 125.355469 53.824219 125.605469 55.207031 C 127.167969 55.207031 128.605469 55.207031 130.210938 55.207031 C 130.210938 48.980469 130.210938 42.878906 130.210938 36.691406 C 125.398438 36.691406 120.667969 36.691406 115.855469 36.691406 C 115.898438 38.644531 115.898438 40.4375 115.898438 42.429688 Z"/>
        <path id="path5" fill="#ffffff" stroke="none" d="M 265.964844 23.46875 C 263.414063 21.3125 260.371094 20.539063 257.082031 20.5 C 252.273438 20.457031 247.5 20.5 242.6875 20.5 C 242.277344 20.5 241.824219 20.578125 241.414063 20.660156 C 241.414063 32.21875 241.414063 43.652344 241.414063 55.246094 C 241.785156 55.328125 241.949219 55.371094 242.113281 55.371094 C 247.210938 55.371094 252.355469 55.410156 257.453125 55.328125 C 258.5625 55.328125 259.714844 55.042969 260.824219 54.71875 C 265.472656 53.375 268.1875 50.078125 269.75 45.765625 C 271.519531 40.882813 271.558594 35.839844 270.367188 30.832031 C 269.667969 27.984375 268.308594 25.421875 265.964844 23.46875 Z M 262.882813 43.527344 C 262.429688 44.832031 261.6875 46.050781 260.867188 47.148438 C 259.839844 48.492188 258.316406 49.265625 256.589844 49.304688 C 254.078125 49.347656 251.613281 49.347656 249.105469 49.304688 C 248.941406 49.304688 248.777344 49.183594 248.488281 49.101563 C 248.488281 41.617188 248.488281 34.128906 248.488281 26.5625 C 248.898438 26.519531 249.1875 26.4375 249.472656 26.4375 C 251.777344 26.4375 254.078125 26.398438 256.382813 26.4375 C 259.097656 26.519531 261.195313 27.699219 262.347656 30.183594 C 262.882813 31.320313 263.292969 32.542969 263.457031 33.761719 C 263.949219 37.101563 264.03125 40.394531 262.882813 43.527344 Z"/>
        <path id="path6" fill="#ffffff" stroke="none" d="M 206.164063 44.21875 C 206.085938 42.390625 206.003906 40.761719 205.878906 39.175781 C 205.839844 38.484375 205.632813 37.792969 205.425781 37.140625 C 203.945313 32.136719 200.449219 29.410156 195.308594 28.921875 C 188.976563 28.3125 183.546875 31.199219 181.902344 38.117188 C 181.164063 41.332031 181.367188 44.546875 182.230469 47.679688 C 183.382813 51.910156 186.097656 54.554688 190.457031 55.53125 C 192.84375 56.0625 195.269531 56.222656 197.695313 55.613281 C 201.847656 54.554688 204.644531 52.074219 205.839844 47.84375 C 203.492188 47.84375 201.273438 47.84375 199.09375 47.84375 C 197.367188 50.488281 194.652344 51.339844 191.773438 50.160156 C 189.46875 49.226563 188.152344 46.863281 188.648438 44.21875 C 194.363281 44.21875 200.164063 44.21875 206.164063 44.21875 Z M 193.5 34.414063 C 196.75 34.332031 198.765625 36.164063 199.09375 39.785156 C 195.515625 39.785156 192.101563 39.785156 188.6875 39.785156 C 188.8125 36.367188 190.539063 34.496094 193.5 34.414063 Z"/>
        <path id="path7" fill="#ffffff" stroke="none" d="M 178.898438 44.21875 C 178.816406 42.390625 178.734375 40.761719 178.613281 39.132813 C 178.570313 38.441406 178.367188 37.75 178.160156 37.097656 C 176.679688 32.175781 173.308594 29.492188 168.207031 28.960938 C 161.957031 28.308594 156.363281 31.078125 154.675781 37.996094 C 153.894531 41.167969 154.101563 44.382813 154.925781 47.554688 C 156.035156 51.789063 158.667969 54.515625 163.027344 55.53125 C 165.492188 56.101563 167.960938 56.265625 170.429688 55.652344 C 174.582031 54.59375 177.335938 52.113281 178.570313 47.800781 C 177.335938 47.800781 176.226563 47.800781 175.15625 47.800781 C 174.007813 47.800781 172.855469 47.800781 171.785156 47.800781 C 170.140625 50.933594 167.136719 50.972656 164.792969 50.324219 C 162.410156 49.632813 161.050781 47.351563 161.214844 44.21875 C 167.097656 44.21875 172.894531 44.21875 178.898438 44.21875 Z M 166.5625 34.414063 C 169.648438 34.414063 171.785156 36.609375 171.703125 39.785156 C 168.289063 39.785156 164.875 39.785156 161.464844 39.785156 C 161.421875 36.367188 163.3125 34.414063 166.5625 34.414063 Z"/>
        <path id="path8" fill="#ffffff" stroke="none" d="M 342.210938 54.269531 C 341.386719 53.621094 341.183594 52.683594 341.101563 51.746094 C 341.019531 50.976563 340.976563 50.242188 340.976563 49.46875 C 340.976563 44.953125 340.9375 40.476563 340.976563 35.960938 C 340.976563 33.4375 339.785156 31.605469 337.605469 30.386719 C 336.988281 30.0625 336.328125 29.734375 335.671875 29.574219 C 332.09375 28.554688 328.472656 28.554688 324.894531 29.613281 C 321.402344 30.671875 319.140625 33.96875 319.222656 37.75 C 321.234375 37.75 323.253906 37.75 325.433594 37.75 C 326.378906 33.722656 329.996094 33.761719 332.671875 34.660156 C 333.863281 35.066406 334.476563 36.164063 334.394531 37.34375 C 334.3125 38.441406 333.902344 38.890625 332.382813 39.257813 C 331.273438 39.5 330.121094 39.621094 328.96875 39.824219 C 326.828125 40.152344 324.648438 40.394531 322.632813 41.25 C 320.621094 42.105469 319.222656 43.527344 318.644531 45.5625 C 318.316406 46.703125 318.234375 47.921875 318.234375 49.101563 C 318.277344 52.195313 320.25 54.757813 323.210938 55.574219 C 326.625 56.46875 329.789063 55.980469 332.671875 53.863281 C 333.285156 53.417969 333.863281 52.96875 334.476563 52.441406 C 334.726563 53.457031 334.972656 54.3125 335.21875 55.207031 C 337.6875 55.207031 340.03125 55.207031 342.496094 55.207031 C 342.375 54.839844 342.375 54.433594 342.210938 54.269531 Z M 334.355469 46.582031 C 333.902344 50.078125 329.75 51.828125 327.117188 51.097656 C 324.855469 50.488281 324.199219 47.109375 326.046875 45.523438 C 326.789063 44.914063 327.816406 44.585938 328.804688 44.34375 C 330.570313 43.855469 332.382813 43.488281 334.394531 43.039063 C 334.355469 44.21875 334.476563 45.402344 334.355469 46.582031 Z"/>
        <path id="path9" fill="#ffffff" stroke="none" d="M 297.261719 51.625 C 297.179688 50.933594 297.136719 50.242188 297.136719 49.550781 C 297.136719 45.035156 297.097656 40.558594 297.136719 36.042969 C 297.136719 34.375 296.644531 32.910156 295.492188 31.730469 C 294.464844 30.671875 293.148438 29.9375 291.707031 29.574219 C 288.460938 28.679688 285.171875 28.597656 281.878906 29.449219 C 277.765625 30.507813 275.503906 33.398438 275.300781 37.792969 C 277.394531 37.792969 279.453125 37.792969 281.511719 37.792969 C 281.59375 37.628906 281.675781 37.507813 281.714844 37.386719 C 282.867188 34.457031 286.28125 33.234375 289.074219 34.820313 C 290.105469 35.390625 290.597656 36.285156 290.515625 37.507813 C 290.433594 38.6875 289.570313 39.09375 288.582031 39.296875 C 287.472656 39.542969 286.320313 39.664063 285.210938 39.90625 C 283.277344 40.273438 281.304688 40.558594 279.410156 41.128906 C 277.191406 41.78125 275.589844 43.246094 274.886719 45.441406 C 274.519531 46.621094 274.394531 47.921875 274.394531 49.183594 C 274.4375 52.601563 276.65625 55.207031 280.027344 55.898438 C 283.441406 56.589844 286.484375 55.898438 289.199219 53.742188 C 289.652344 53.375 290.144531 53.050781 290.640625 52.683594 C 290.925781 53.742188 291.132813 54.636719 291.378906 55.453125 C 293.886719 55.453125 296.191406 55.453125 298.699219 55.453125 C 298.535156 54.964844 298.535156 54.636719 298.371094 54.515625 C 297.546875 53.621094 297.382813 52.644531 297.261719 51.625 Z M 290.554688 46.417969 C 290.351563 48.941406 287.84375 51.097656 284.964844 51.179688 C 284.222656 51.21875 283.398438 51.136719 282.742188 50.8125 C 280.6875 49.753906 280.523438 46.582031 282.496094 45.238281 C 283.195313 44.75 284.101563 44.503906 284.964844 44.300781 C 286.730469 43.855469 288.542969 43.488281 290.554688 43 C 290.554688 44.179688 290.640625 45.277344 290.554688 46.417969 Z"/>
        <path id="path10" fill="#ffffff" stroke="none" d="M 233.804688 34.289063 C 231.746094 28.105469 222.453125 27.089844 218.589844 31.726563 C 218.214844 32.175781 217.804688 32.621094 217.148438 33.4375 C 217.148438 31.851563 217.148438 30.75 217.148438 29.570313 C 215.011719 29.570313 213.035156 29.570313 210.855469 29.570313 C 210.855469 38.15625 210.855469 46.621094 210.855469 55.082031 C 212.828125 55.410156 216.160156 55.367188 217.558594 55 C 217.558594 54.390625 217.558594 53.742188 217.558594 53.128906 C 217.558594 49.019531 217.519531 44.910156 217.601563 40.800781 C 217.640625 39.621094 217.847656 38.402344 218.300781 37.34375 C 219.246094 35.144531 221.835938 34.046875 224.222656 34.617188 C 226.523438 35.144531 227.511719 36.527344 227.550781 39.253906 C 227.550781 39.703125 227.550781 40.152344 227.550781 40.597656 C 227.550781 45.03125 227.550781 49.46875 227.550781 53.902344 C 227.550781 54.390625 227.632813 54.878906 227.675781 55.285156 C 229.976563 55.285156 232.117188 55.285156 234.214844 55.285156 C 234.296875 55.042969 234.339844 54.921875 234.339844 54.796875 C 234.339844 48.980469 234.378906 43.160156 234.339844 37.34375 C 234.378906 36.285156 234.132813 35.269531 233.804688 34.289063 Z"/>
        <path id="path11" fill="#ffffff" stroke="none" d="M 312.644531 50.445313 C 311.574219 50.363281 311.160156 50 310.996094 48.941406 C 310.914063 48.492188 310.957031 48.046875 310.957031 47.597656 C 310.957031 43.8125 310.957031 40.03125 310.957031 36.203125 C 310.957031 35.636719 310.996094 35.105469 311.039063 34.292969 C 312.4375 34.292969 313.753906 34.292969 315.070313 34.292969 C 315.234375 32.582031 315.234375 31.078125 315.109375 29.410156 C 313.671875 29.410156 312.355469 29.410156 310.875 29.410156 C 310.875 27.007813 310.875 24.8125 310.875 22.53125 C 309.640625 22.53125 308.613281 22.53125 307.625 22.53125 C 306.554688 22.53125 305.527344 22.574219 304.253906 22.613281 C 304.253906 25.015625 304.253906 27.210938 304.253906 29.410156 C 302.980469 29.449219 301.910156 29.53125 300.71875 29.574219 C 300.71875 31.160156 300.511719 32.625 300.882813 34.171875 C 302.035156 34.25 303.101563 34.292969 304.210938 34.375 C 304.253906 34.984375 304.335938 35.472656 304.335938 35.960938 C 304.335938 37.792969 304.335938 39.621094 304.335938 41.453125 C 304.335938 44.628906 304.296875 47.761719 304.378906 50.933594 C 304.460938 53.417969 305.695313 54.800781 308.121094 55.207031 C 309.519531 55.449219 310.914063 55.492188 312.3125 55.53125 C 313.261719 55.574219 314.164063 55.371094 315.152344 55.289063 C 315.195313 53.539063 315.359375 51.992188 315.027344 50.363281 C 314.164063 50.488281 313.425781 50.527344 312.644531 50.445313 Z"/>
        <path id="path12" fill="#ffffff" stroke="none" d="M 148.308594 29.289063 C 146.046875 29.941406 145.015625 31.933594 143.453125 34.007813 C 143.453125 32.257813 143.453125 30.957031 143.453125 29.53125 C 141.191406 29.574219 139.136719 29.453125 137.121094 29.574219 C 137.121094 38.28125 137.121094 46.703125 137.121094 55.207031 C 139.382813 55.207031 141.523438 55.207031 143.824219 55.207031 C 143.824219 53.660156 143.824219 52.238281 143.824219 50.773438 C 143.824219 47.679688 143.785156 44.589844 143.824219 41.453125 C 143.867188 38.117188 145.386719 36.289063 148.71875 35.675781 C 149.417969 35.554688 150.117188 35.59375 150.816406 35.554688 C 151.226563 35.515625 151.636719 35.472656 152.089844 35.433594 C 152.089844 33.234375 152.089844 31.160156 152.089844 28.964844 C 150.609375 28.597656 149.457031 28.964844 148.308594 29.289063 Z"/>
    </g>
</svg>
